<?xml version="1.0" encoding="iso-8859-1"?>
<!-- Uploaded to: SVG Repo, www.svgrepo.com, Generator: SVG Repo Mixer Tools -->
<svg version="1.1" id="Capa_1" xmlns="http://www.w3.org/2000/svg" xmlns:xlink="http://www.w3.org/1999/xlink" 
	 viewBox="0 0 57 57" xml:space="preserve">
<rect x="0" y="0" style="fill:transparent;" width="57" height="57"/>
<path style="fill:#BDC3C7;" d="M20,44c-0.256,0-0.512-0.098-0.707-0.293L4.586,29l14.707-14.707c0.391-0.391,1.023-0.391,1.414,0
	s0.391,1.023,0,1.414L7.414,29l13.293,13.293c0.391,0.391,0.391,1.023,0,1.414C20.512,43.902,20.256,44,20,44z"/>
<path style="fill:#BDC3C7;" d="M37,44c-0.256,0-0.512-0.098-0.707-0.293c-0.391-0.391-0.391-1.023,0-1.414L49.586,29L36.293,15.707
	c-0.391-0.391-0.391-1.023,0-1.414s1.023-0.391,1.414,0L52.414,29L37.707,43.707C37.512,43.902,37.256,44,37,44z"/>
<path style="fill:#BDC3C7;" d="M24.001,50c-0.071,0-0.144-0.008-0.216-0.023c-0.539-0.118-0.88-0.651-0.762-1.191l9-41
	c0.118-0.539,0.654-0.88,1.191-0.762c0.539,0.118,0.88,0.651,0.762,1.191l-9,41C24.874,49.682,24.46,50,24.001,50z"/>
</svg>