<?xml version="1.0" encoding="UTF-8" standalone="no"?>
<svg
   xmlns:dc="http://purl.org/dc/elements/1.1/"
   xmlns:cc="http://creativecommons.org/ns#"
   xmlns:rdf="http://www.w3.org/1999/02/22-rdf-syntax-ns#"
   xmlns:svg="http://www.w3.org/2000/svg"
   xmlns="http://www.w3.org/2000/svg"
   xmlns:sodipodi="http://sodipodi.sourceforge.net/DTD/sodipodi-0.dtd"
   xmlns:inkscape="http://www.inkscape.org/namespaces/inkscape"
   width="70"
   height="70"
   viewBox="118 -10 50 70"
   version="1.1"
   id="svg8"
   inkscape:version="1.0.1 (3bc2e813f5, 2020-09-07)"
   sodipodi:docname="logo.svg">
  <defs
     id="defs2" />
  <sodipodi:namedview
     id="base"
     pagecolor="#ffffff"
     bordercolor="#666666"
     borderopacity="1.0"
     inkscape:pageopacity="0.0"
     inkscape:pageshadow="2"
     inkscape:zoom="0.67515432"
     inkscape:cx="360.89461"
     inkscape:cy="222.43665"
     inkscape:document-units="mm"
     inkscape:current-layer="text854"
     inkscape:document-rotation="0"
     showgrid="false"
     fit-margin-top="0"
     fit-margin-left="0"
     fit-margin-right="0"
     fit-margin-bottom="0"
     showguides="true"
     inkscape:guide-bbox="true"
     inkscape:window-width="1440"
     inkscape:window-height="837"
     inkscape:window-x="-8"
     inkscape:window-y="-8"
     inkscape:window-maximized="1">
    <sodipodi:guide
       position="82.398808,38.705536"
       orientation="0,-1"
       id="guide858" />
    <sodipodi:guide
       position="125.40343,8.2799631"
       orientation="0,-1"
       id="guide860" />
  </sodipodi:namedview>
  <metadata
     id="metadata5">
    <rdf:RDF>
      <cc:Work
         rdf:about="">
        <dc:format>image/svg+xml</dc:format>
        <dc:type
           rdf:resource="http://purl.org/dc/dcmitype/StillImage" />
        <dc:title></dc:title>
      </cc:Work>
    </rdf:RDF>
  </metadata>
  <g
     inkscape:label="Layer 1"
     inkscape:groupmode="layer"
     id="layer1"
     transform="translate(-20.413298,-41.5014)">
    <g
       style="fill:#cc3433"
       id="g846"
       transform="matrix(0.26458333,0,0,0.26458333,3.4352815,41.502232)">
      <path
         d="m 604.83,144.19 c 1.47,2.1 1.66,4.86 1.37,7.41 -0.15,1.31 -0.42,2.63 -0.96,3.84 -0.53,1.21 -1.34,2.31 -2.42,3.05 -1.9,1.29 -4.51,1.28 -6.53,0.2 -3.96,-2.11 -5.07,-7.11 -4.08,-11.26 0.47,-1.94 1.53,-3.76 3.13,-4.91 0.22,-0.15 0.45,-0.29 0.68,-0.42 1.33,-0.73 2.91,-1 4.41,-0.73 1.75,0.3 3.37,1.34 4.4,2.82 z m 60.06,-125.6 c -0.64,-2.56 -1.56,-5.16 -3.43,-7 -1.86,-1.84 -4.9,-2.69 -7.14,-1.34 -3.36,2.01 -2.93,6.95 -2.53,10.89 1.01,9.94 -1.11,20.2 -5.97,28.9 -7.64,13.65 -21.51,22.84 -36.2,27.81 -14.69,4.98 -30.32,6.2 -45.77,7.25 2.34,-14.91 7.8,-29.31 15.9,-41.99 7.42,2.67 14.51,6.32 22.11,8.39 7.61,2.07 16.09,2.41 23.01,-1.4 7.93,-4.37 12.44,-13.59 13.11,-22.71 0.52,-6.95 -1.07,-14.3 -5.56,-19.58 C 627.93,2.54 621.18,0.12 614.24,0 c -4.26,-0.06 -8.59,0.74 -12.53,2.29 -10.33,4.07 -18.49,12.22 -26.24,20.26 -2.31,-1.55 -4.72,-3.07 -7.43,-3.66 -2.71,-0.59 -5.81,-0.07 -7.69,2 -2.12,2.33 -2.12,6.1 -0.6,8.87 1.52,2.77 4.26,4.66 7.14,5.9 -9.25,15.25 -15.22,32.53 -17.37,50.3 -5.54,0.06 -11.07,0.12 -16.61,0.18 -1.89,0.02 -3.85,0.06 -5.55,0.88 -4.18,2.03 -4.55,9.07 -0.61,11.54 1.48,0.93 3.25,1.21 4.97,1.41 5.63,0.65 10.99,0.8 16.85,0.69 0.07,2.53 0.13,5.66 0.14,6.28 0.07,2.48 0.18,4.95 0.34,7.42 0.31,4.94 0.81,9.87 1.49,14.78 1.36,9.81 3.44,19.51 6.24,29 1.01,3.44 1.74,7.04 3.83,10.01 1.7,2.41 4.4,4.52 7.47,3.65 2.85,-0.81 4.55,-3.96 4.7,-6.96 0.15,-3 -0.9,-5.91 -1.85,-8.75 -5.93,-17.72 -8.72,-36.51 -8.2,-55.21 16.45,-1.78 33.01,-3.74 48.77,-8.85 15.76,-5.1 30.84,-13.59 41.39,-26.51 10.54,-12.92 16.03,-30.67 12,-46.93 z m -76.03,11.03 c 5.14,-6.6 11.9,-12.01 19.68,-14.91 1.97,-0.73 4.02,-1.3 6.11,-1.28 0.42,0 0.84,0.03 1.26,0.09 1.66,0.23 3.27,0.89 4.47,2.06 1.97,1.93 2.55,4.91 2.58,7.69 0.03,3.12 -0.51,6.24 -1.67,9.12 -0.65,1.57 -1.53,3.13 -2.96,4.03 -1.12,0.7 -2.48,0.93 -3.79,1.01 -2.9,0.17 -5.8,-0.32 -8.63,-0.97 -5.79,-1.34 -11.76,-3.29 -16.92,-6.29 -0.11,-0.06 -0.23,-0.14 -0.24,-0.27 -0.02,-0.1 0.05,-0.2 0.11,-0.28 z m 53.26,112.95 c 2.34,2.55 4.67,5.64 4.38,9.11 -0.26,2.98 -2.73,5.62 -5.65,6.04 -2.29,0.32 -4.6,-0.59 -6.48,-1.96 -1.88,-1.37 -3.4,-3.17 -4.98,-4.87 -11.67,-12.55 -27.83,-20.71 -44.74,-22.6 -2.46,-0.27 -6.27,-0.38 -7.41,-2.97 -1.05,-2.41 -1.26,-6.16 0.38,-8.34 0.93,-1.23 2.34,-1.94 3.82,-2.38 0.41,-0.12 0.84,-0.22 1.25,-0.31 5.99,-1.24 12.21,0.01 18.05,1.84 15.76,4.93 30.16,14.19 41.38,26.44 z"
         id="path833"
         sodipodi:nodetypes="cccccccccccccccccccccccccscscccccccccccccscccccccccccccccccccccscccccccc" />
    </g>
    <!-- <g
       aria-label="پارسی‌مپ"
       id="text854"
       style="font-style:normal;font-weight:normal;font-size:31.75px;line-height:0.1;font-family:sans-serif;letter-spacing:0.0555625px;fill:#000000;fill-opacity:1;stroke:none;stroke-width:0.264583">
      <path
         d="m 132.22824,72.988373 2.18591,-2.201416 2.20142,2.201416 -2.20142,2.185913 z m -5.271,0 2.18592,-2.201416 2.20141,2.201416 -2.20141,2.185913 z m 2.6045,4.061767 2.18591,-2.201416 2.20141,2.201416 -2.20141,2.185913 z m 6.96081,-20.339843 q 0.37207,1.27124 0.57361,2.713012 0.20154,1.42627 0.20154,2.651001 0,3.550171 -1.79834,5.162476 -1.78284,1.596802 -5.41053,1.596802 h -2.30993 v -3.410645 h 2.30993 q 1.50379,0 2.35645,-0.232544 0.85266,-0.232544 1.20923,-0.945679 0.37207,-0.713134 0.37207,-2.123901 0,-0.945679 -0.18604,-2.232422 -0.18603,-1.302246 -0.44958,-2.418457 z"
         style="font-style:normal;font-variant:normal;font-weight:500;font-stretch:normal;font-size:31.75px;font-family:Vazir;-inkscape-font-specification:'Vazir Medium';fill:#cc3433;fill-opacity:1;stroke-width:0.264583"
         id="path862" />
      <path
         d="m 128.34345,68.833588 h -0.38757 q -2.94556,0 -4.52686,-1.565796 -1.5813,-1.565796 -1.5813,-5.022949 V 47.501556 h 3.24012 v 14.758789 q 0,1.860352 0.71313,2.511475 0.72864,0.651123 2.15491,0.651123 h 0.38757 z"
         style="font-style:normal;font-variant:normal;font-weight:500;font-stretch:normal;font-size:31.75px;font-family:Vazir;-inkscape-font-specification:'Vazir Medium';fill:#cc3433;fill-opacity:1;stroke-width:0.264583"
         id="path864" />
      <path
         d="m 117.1878,59.965912 q 0.71313,1.627807 1.05419,3.379639 0.35657,1.736328 0.35657,3.426147 0,2.402954 -0.94568,4.542358 -0.94568,2.139405 -2.93005,3.705201 -1.98438,1.565795 -5.11597,2.263427 l -1.41076,-2.868042 q 3.76721,-0.914673 5.48803,-2.852539 1.72083,-1.922363 1.72083,-4.542358 0,-2.868042 -1.31775,-5.953125 z"
         style="font-style:normal;font-variant:normal;font-weight:500;font-stretch:normal;font-size:31.75px;font-family:Vazir;-inkscape-font-specification:'Vazir Medium';fill:#cc3433;fill-opacity:1;stroke-width:0.264583"
         id="path866" />
      <path
         d="m 104.88492,65.422943 q 0.86816,0 1.34875,-0.713135 0.49609,-0.728637 0.49609,-2.418457 0,-0.821655 -0.21704,-1.968872 -0.20153,-1.162719 -0.5426,-2.340942 l 3.13159,-0.79065 q 0.38758,1.224732 0.65113,2.449463 0.26355,1.224732 0.26355,2.418457 0,1.79834 -0.4961,3.348633 -0.48059,1.53479 -1.6123,2.480469 -1.11621,0.930176 -3.00757,0.945679 -2.60449,0 -3.79822,-2.015381 -1.643309,2.015381 -4.232298,2.015381 -2.96106,0 -4.12378,-1.999878 -1.441772,1.999878 -4.97644,1.999878 H 86.69998 v -3.410645 h 1.100708 q 1.813843,0 2.619995,-0.604614 0.821655,-0.620117 0.821655,-2.32544 0,-0.37207 -0.06201,-1.240234 -0.04651,-0.868164 -0.124023,-1.79834 l 3.178101,-0.37207 0.279052,3.829224 q 0.07751,1.147216 0.666626,1.829345 0.589112,0.682129 1.720826,0.682129 1.395263,0 1.968872,-0.713135 0.589111,-0.728637 0.589111,-2.216919 0,-0.341064 -0.06201,-1.209228 -0.04651,-0.883667 -0.10852,-1.829346 l 3.162601,-0.37207 0.27905,3.829224 q 0.0775,1.131713 0.58911,1.829345 0.5116,0.682129 1.5658,0.682129 z"
         style="font-style:normal;font-variant:normal;font-weight:500;font-stretch:normal;font-size:31.75px;font-family:Vazir;-inkscape-font-specification:'Vazir Medium';fill:#cc3433;fill-opacity:1;stroke-width:0.264583"
         id="path868" />
      <path
         d="m 70.087286,62.694427 q -0.418579,1.16272 -0.666626,2.402955 -0.248047,1.240234 -0.248047,2.495971 0,3.240113 1.627808,4.573365 1.64331,1.348754 5.022949,1.348754 1.875854,0 3.519165,-0.48059 1.658813,-0.465088 2.666504,-1.224732 1.023193,-0.759643 1.023193,-1.627807 0,-0.496094 -0.511596,-0.930176 -0.511597,-0.418579 -1.720826,-0.418579 h -1.953369 q -0.589111,0 -0.852661,-0.294556 -0.26355,-0.310059 -0.37207,-0.775147 l -0.37207,-1.550292 q -0.108521,-0.465088 0.0155,-0.620118 0.124024,-0.170532 0.5271,-0.170532 h 9.47229 v 3.410645 h -1.410767 q 0.217042,0.511596 0.26355,0.852661 0.04651,0.341064 0.04651,0.604614 0,1.937866 -1.333252,3.426147 -1.333252,1.488282 -3.674194,2.32544 -2.32544,0.837158 -5.317505,0.837158 -4.697388,0 -7.317383,-2.340942 -2.619995,-2.340943 -2.619995,-6.960816 0,-1.37976 0.325562,-3.085083 0.341064,-1.705322 0.930175,-3.007568 z"
         style="font-style:normal;font-variant:normal;font-weight:500;font-stretch:normal;font-size:31.75px;font-family:Vazir;-inkscape-font-specification:'Vazir Medium';fill:#cc3433;fill-opacity:1;stroke-width:0.264583"
         id="path870" />
      <path
         d="m 53.087023,66.725189 q -0.945679,1.023194 -2.030884,1.565796 -1.085205,0.542603 -2.325439,0.542603 h -0.666626 v -3.410645 h 0.589111 q 1.224731,0 2.015381,-1.054199 0.806152,-1.054199 1.395263,-2.340942 2.077393,-4.588868 5.565552,-4.588868 1.767334,0 3.054077,0.868164 1.302246,0.868164 2.015381,2.309937 0.713135,1.441772 0.713135,3.147095 0,2.511474 -1.27124,3.96875 -1.271241,1.441772 -3.643189,1.441772 -1.519287,0 -2.821533,-0.620117 -1.286743,-0.63562 -2.588989,-1.829346 z m 1.720825,-2.914551 q 0.930176,1.0542 1.860352,1.550293 0.930175,0.496094 1.720825,0.496094 1.844848,0 1.844848,-1.860351 0,-1.441773 -0.697631,-2.294434 -0.697632,-0.852661 -1.844849,-0.852661 -0.868164,0 -1.596802,0.883667 -0.728638,0.883667 -1.286743,2.077392 z"
         style="font-style:normal;font-variant:normal;font-weight:500;font-stretch:normal;font-size:31.75px;font-family:Vazir;-inkscape-font-specification:'Vazir Medium';fill:#cc3433;fill-opacity:1;stroke-width:0.264583"
         id="path872" />
      <path
         d="m 33.730314,72.988373 2.185913,-2.201416 2.201416,2.201416 -2.201416,2.185913 z m -5.270996,0 2.185913,-2.201416 2.201416,2.201416 -2.201416,2.185913 z m 2.604492,4.061767 2.185913,-2.201416 2.201416,2.201416 -2.201416,2.185913 z m 3.410645,-8.216552 H 32.22653 q -5.596558,0 -8.712646,-1.937867 -3.100586,-1.937866 -3.100586,-5.87561 0,-1.16272 0.279052,-2.247925 0.279053,-1.100708 0.697632,-2.077392 l 2.945557,1.085205 q -0.26355,0.666626 -0.434082,1.472778 -0.155029,0.806152 -0.155029,1.53479 0.0155,2.356445 2.030883,3.503662 2.030884,1.131714 6.29419,1.131714 h 2.325439 q 5.953125,0 7.518921,-1.891357 0.201538,-0.248047 0.325562,-0.651123 0.139526,-0.418579 0.139526,-1.0542 0,-0.682128 -0.04651,-1.364257 -0.03101,-0.682129 -0.07751,-1.333252 l 3.116088,-0.372071 0.26355,4.170288 q 0.07751,1.302247 0.682129,1.906861 0.604614,0.589111 1.922363,0.589111 h 0.387574 v 3.410645 h -0.387574 q -3.1781,0 -4.681884,-2.58899 -1.410767,1.317749 -3.736206,1.95337 -2.32544,0.63562 -5.348511,0.63562 z"
         style="font-style:normal;font-variant:normal;font-weight:500;font-stretch:normal;font-size:31.75px;font-family:Vazir;-inkscape-font-specification:'Vazir Medium';fill:#cc3433;fill-opacity:1;stroke-width:0.264583"
         id="path874" />
    </g> -->
  </g>
</svg>
